<?xml version="1.0" standalone="no"?><!DOCTYPE svg PUBLIC "-//W3C//DTD SVG 1.1//EN" "http://www.w3.org/Graphics/SVG/1.1/DTD/svg11.dtd"><svg t="1537237794537" class="icon" style="" viewBox="0 0 1024 1024" version="1.1" xmlns="http://www.w3.org/2000/svg" p-id="7817" xmlns:xlink="http://www.w3.org/1999/xlink" width="64" height="64"><defs><style type="text/css"></style></defs><path d="M518.434 668.59c-33.248 0-61.134-28.421-86.339-60.062-40.22-49.872-111.006-148.545-138.894-251.508-15.015-47.189-14.478-98.672 1.609-145.327 32.174-92.238 119.587-154.447 217.187-154.447 100.817 0 188.765 64.353 219.33 160.88 17.163 55.235 13.405 113.689-10.724 166.241-20.378 54.7-56.308 120.659-112.617 208.608-25.741 40.22-50.41 74.004-86.339 76.149-1.609-0.535-2.681-0.535-3.219-0.535zM511.465 110.337c-75.077 0-142.109 47.728-166.779 118.514-12.333 35.93-12.87 76.149-1.074 112.080 0 0.535 0 1.074 0.535 1.074 25.206 93.846 91.7 186.084 129.241 232.74 30.567 37.537 42.365 40.22 45.045 40.22 7.51-0.535 22.523-17.696 44.511-51.483 54.7-85.266 89.019-148.545 107.79-199.489 0-0.535 0.535-1.609 1.074-2.145 18.77-39.684 21.987-86.339 8.579-128.167-23.596-74.004-91.165-123.342-168.924-123.342z" p-id="7818" fill="#2b2b2b"></path><path d="M509.855 339.323c32.174 0 58.452-26.276 58.452-58.452s-26.276-58.452-58.452-58.452c-32.174 0-58.452 26.276-58.452 58.452 0.535 32.174 26.815 58.452 58.452 58.452z" p-id="7819" fill="#2b2b2b"></path><path d="M136.078 942.622c-1.609 0-3.753 0-5.363 0-14.478-0.535-25.741-12.333-25.741-26.815v-329.804c0-13.405 10.189-24.668 23.058-26.276 39.684-4.827 76.149-21.451 114.761-39.147l4.827-2.145c13.405-5.9 28.959 0 35.394 13.405 5.9 13.405 0 28.959-13.405 35.394l-4.827 2.145c-33.786 15.552-68.106 31.105-106.716 39.147v279.395c40.22-4.827 71.86-22.523 105.646-41.294 61.134-34.319 130.847-72.931 242.394-5.363 0 0 0.535 0.535 0.535 0.535 102.962 67.033 171.605 35.93 250.973-0.535 33.786-15.552 68.643-31.105 106.716-39.147v-279.395c-30.567 3.753-55.235 14.478-78.295 26.276-12.87 6.973-28.959 1.609-35.93-11.263-6.973-12.87-1.609-28.959 11.263-35.93 33.248-17.163 75.077-34.858 129.777-33.786 14.478 0.535 25.741 12.333 25.741 26.815v329.804c0 13.405-10.189 24.668-23.058 26.276-39.684 4.827-76.149 21.451-114.761 39.147-81.513 37.003-174.288 79.366-301.381-3.219-84.73-50.947-128.167-26.815-188.23 6.973-41.828 22.523-89.019 48.8-153.372 48.8z" p-id="7820" fill="#2b2b2b"></path></svg>