<?xml version="1.0" standalone="no"?><!DOCTYPE svg PUBLIC "-//W3C//DTD SVG 1.1//EN" "http://www.w3.org/Graphics/SVG/1.1/DTD/svg11.dtd"><svg t="1538186310441" class="icon" style="" viewBox="0 0 1024 1024" version="1.1" xmlns="http://www.w3.org/2000/svg" p-id="1911" xmlns:xlink="http://www.w3.org/1999/xlink" width="64" height="64"><defs><style type="text/css"></style></defs><path d="M510.097674 189.494819c-134.373407 0-243.281839 106.623389-243.281839 238.182704 0 131.541919 108.908432 238.179634 243.281839 238.179634 134.3775 0 243.285932-106.636692 243.285932-238.179634C753.383606 296.117185 644.475174 189.494819 510.097674 189.494819L510.097674 189.494819zM510.097674 189.494819" p-id="1912" fill="#1296db"></path><path d="M229.17761 519.102768 229.17761 299.209616c-3.079128 0-6.132674 0.125867-9.148357 0.366344C269.882684 191.349049 380.918569 115.974361 510.135536 115.974361c129.21185 0 240.253876 75.374688 290.103214 183.600575-3.016707-0.240477-6.066159-0.366344-9.148357-0.366344l0 219.894176c62.052265 0 112.390743-49.231261 112.390743-109.941971 0-41.235147-23.219841-77.163427-57.552787-95.982028-48.314379-136.089491-180.214455-233.837746-335.792812-233.837746-155.577335 0-287.469224 97.739045-335.788719 233.824443-34.344203 18.815531-57.555857 54.750975-57.555857 95.990215C116.79096 469.871507 167.090553 519.102768 229.17761 519.102768L229.17761 519.102768zM229.17761 519.102768" p-id="1913" fill="#1296db"></path><path d="M752.869906 645.160789c-63.570851 58.08593-148.919704 93.65196-242.772232 93.65196-93.676519 0-178.881087-35.435047-242.415099-93.327572C153.974837 702.767811 79.32465 804.722878 79.32465 943.226349l864.503403 0C943.827029 804.465005 867.780029 702.385095 752.869906 645.160789L752.869906 645.160789zM752.869906 645.160789" p-id="1914" fill="#1296db"></path></svg>