<?xml version="1.0" standalone="no"?><!DOCTYPE svg PUBLIC "-//W3C//DTD SVG 1.1//EN" "http://www.w3.org/Graphics/SVG/1.1/DTD/svg11.dtd"><svg t="1536993669392" class="icon" style="" viewBox="0 0 1024 1024" version="1.1" xmlns="http://www.w3.org/2000/svg" p-id="1109" xmlns:xlink="http://www.w3.org/1999/xlink" width="64" height="64"><defs><style type="text/css"></style></defs><path d="M317.3 958.8c-69 0-125.2-56.2-125.2-125.2s56.2-125.2 125.2-125.2 125.2 56.2 125.2 125.2-56.2 125.2-125.2 125.2z m0-222.6c-53.7 0-97.4 43.7-97.4 97.4s43.7 97.4 97.4 97.4 97.4-43.7 97.4-97.4c-0.1-53.7-43.8-97.4-97.4-97.4zM706.7 875.3c-69 0-125.2-56.2-125.2-125.2s56.2-125.2 125.2-125.2 125.2 56.2 125.2 125.2-56.1 125.2-125.2 125.2z m0-222.5c-53.7 0-97.4 43.7-97.4 97.4s43.7 97.4 97.4 97.4 97.4-43.7 97.4-97.4c0-53.8-43.7-97.4-97.4-97.4z" p-id="1110"></path><path d="M442.4 833.6h-27.8v-679l417.3-89.4v684.9h-27.8V99.6l-361.7 77.5z" p-id="1111"></path><path d="M431.5 402.1l-5.9-27.3 389.5-83.4 5.9 27.2z" p-id="1112"></path></svg>