<?xml version="1.0" standalone="no"?><!DOCTYPE svg PUBLIC "-//W3C//DTD SVG 1.1//EN" "http://www.w3.org/Graphics/SVG/1.1/DTD/svg11.dtd"><svg t="1537357904074" class="icon" style="" viewBox="0 0 1024 1024" version="1.1" xmlns="http://www.w3.org/2000/svg" p-id="9373" xmlns:xlink="http://www.w3.org/1999/xlink" width="64" height="64"><defs><style type="text/css"></style></defs><path d="M747.682255 638.235053c10.091846 49.955762 18.998703 95.172593 26.714432 135.6464 3.560082 17.076934 6.824429 34.151821 9.795087 51.227732 2.965541 17.070794 5.78475 32.564673 8.456602 46.479591 2.673899 13.908778 4.897543 25.76685 6.67912 35.573193 1.778506 9.801227 2.968611 15.965623 3.560082 18.492166 1.778506 12.650111-0.889253 21.029966-8.010441 25.142633-7.125281 4.102435-15.138792 6.163373-24.041556 6.163373-2.968611 0-7.271614-1.110287-12.911054-3.319605-5.637394-2.215458-9.943466-3.954055-12.909008-5.217838L512.616542 804.236807c-42.147936 26.559912-80.432891 50.276057-114.864074 71.146387-14.842033 8.849552-29.529547 17.705244-44.073798 26.553773-14.544251 8.854669-27.754111 17.081027-39.625486 24.662703-11.872399 7.590885-22.109554 13.920034-30.714536 18.97926-8.610098 5.053086-14.398942 8.214079-17.364483 9.484002-5.936199 3.162016-12.023848 4.266164-18.256806 3.314489-6.235005-0.946558-11.872399-3.314489-16.915251-7.109931-5.043876-3.796466-8.756431-8.378831-11.129478-13.755282-2.376117-5.376451-2.965541-10.911514-1.781576-16.594957 0.596588-2.532683 2.078335-8.702196 4.453429-18.502399 2.376117-9.801227 5.043876-21.50171 8.013511-35.098379 2.965541-13.596669 6.380314-28.615735 10.239202-45.057195 3.857864-16.440437 7.862062-33.199123 12.018731-50.275034 8.904811-39.210024 18.996656-83.474157 30.274514-132.798539-35.021631-32.254611-66.482157-61.028958-94.381577-86.322018-11.872399-10.749832-23.598464-21.344121-35.173081-31.776727-11.574616-10.437723-21.963221-19.919678-31.162744-28.461215-9.203616-8.535397-16.769942-15.490809-22.705118-20.866237-5.936199-5.373381-9.203616-8.378831-9.800203-9.012258-7.121188-6.957459-13.20372-14.70184-18.250666-23.23826-5.043876-8.541537-6.975878-17.231453-5.785773-26.086122 1.187035-8.853645 4.449335-15.812127 9.79611-20.871353 5.340635-5.057179 11.275811-8.218172 17.807574-9.487072l275.131221-26.557866L470.766388 102.288664c3.560082-10.122545 8.608052-18.818601 15.140839-26.085098 6.526647-7.272637 15.432481-10.911514 26.710338-10.911514 5.935176 0 11.129478 1.425466 15.582907 4.267187 4.451382 2.847861 8.16189 6.16542 11.133571 9.959839 2.963495 3.795443 5.485945 7.589862 7.563256 11.386328 2.079358 3.794419 3.713578 6.954389 4.897543 9.485025l99.729375 254.222005 275.136338 27.510564c11.872399 3.160993 20.177552 6.955412 24.927739 11.380188 4.751211 4.426823 7.121188 11.383258 7.121188 20.87033 0 8.853645-2.521426 16.59905-7.566326 23.237237-5.047969 6.643304-11.42726 14.705933-19.144012 24.193005L747.682255 638.235053 747.682255 638.235053zM747.682255 638.235053" p-id="9374" fill="#f82b0c"></path></svg>