<?xml version="1.0" standalone="no"?><!DOCTYPE svg PUBLIC "-//W3C//DTD SVG 1.1//EN" "http://www.w3.org/Graphics/SVG/1.1/DTD/svg11.dtd"><svg t="1538214153272" class="icon" style="" viewBox="0 0 1402 1024" version="1.1" xmlns="http://www.w3.org/2000/svg" p-id="1758" xmlns:xlink="http://www.w3.org/1999/xlink" width="87.625" height="64"><defs><style type="text/css"></style></defs><path d="M1189.102 477.708c-58.744-84.746-270.631-361.217-530.883-361.217s-472.161 276.46-530.883 361.184c-6.783 9.555-10.843 21.457-10.843 34.307 0 12.849 4.060 24.752 10.967 34.492 58.587 84.561 270.42 361.031 530.758 361.031s472.15-276.471 530.883-361.217c6.769-9.554 10.82-21.45 10.82-34.291 0-12.842-4.051-24.737-10.944-34.478zM1139.631 512c-38.798 56.014-244.433 335.323-481.413 335.323s-442.616-279.309-481.413-335.323c38.798-56.014 244.369-335.323 481.413-335.323s442.616 279.309 481.413 335.323l24.745-17.129z" p-id="1759" fill="#4ce00a"></path><path d="M658.217 299.182c-117.336 0-212.798 95.471-212.798 212.818s95.461 212.818 212.798 212.818 212.808-95.483 212.808-212.818-95.461-212.818-212.808-212.818zM658.217 664.623c-84.15 0-152.613-68.473-152.613-152.634s68.473-152.623 152.613-152.623 152.623 68.473 152.623 152.634-68.473 152.634-152.623 152.634z" p-id="1760" fill="#4ce00a"></path></svg>