<?xml version="1.0" standalone="no"?><!DOCTYPE svg PUBLIC "-//W3C//DTD SVG 1.1//EN" "http://www.w3.org/Graphics/SVG/1.1/DTD/svg11.dtd"><svg t="1537357932270" class="icon" style="" viewBox="0 0 1024 1024" version="1.1" xmlns="http://www.w3.org/2000/svg" p-id="9744" xmlns:xlink="http://www.w3.org/1999/xlink" width="64" height="64"><defs><style type="text/css"></style></defs><path d="M990.4 401.6c-3.2-8-9.6-14.4-19.2-16l-302.4-44.8-136-273.6c-3.2-8-12.8-12.8-20.8-12.8-9.6 0-17.6 4.8-20.8 12.8l-136 275.2-302.4 43.2c-9.6 1.6-16 8-19.2 16s0 17.6 6.4 24l217.6 214.4-51.2 302.4c-1.6 9.6 1.6 17.6 9.6 22.4s17.6 6.4 25.6 1.6l270.4-142.4 270.4 142.4c3.2 1.6 8 3.2 11.2 3.2 4.8 0 9.6-1.6 14.4-4.8 8-4.8 11.2-14.4 9.6-22.4l-51.2-302.4 219.2-214.4c6.4-4.8 8-14.4 4.8-24zM723.2 614.4c-4.8 4.8-8 12.8-6.4 20.8l46.4 267.2-240-126.4c-3.2-1.6-8-3.2-11.2-3.2v-641.6l120 243.2c3.2 6.4 9.6 11.2 17.6 12.8l267.2 38.4-193.6 188.8z" p-id="9745" fill="#f82b0c"></path></svg>