<?xml version="1.0" standalone="no"?><!DOCTYPE svg PUBLIC "-//W3C//DTD SVG 1.1//EN" "http://www.w3.org/Graphics/SVG/1.1/DTD/svg11.dtd"><svg t="1537343623626" class="icon" style="" viewBox="0 0 1024 1024" version="1.1" xmlns="http://www.w3.org/2000/svg" p-id="6871" xmlns:xlink="http://www.w3.org/1999/xlink" width="64" height="64"><defs><style type="text/css"></style></defs><path d="M670.6 367.9c10.3 0 20.4 0.8 30.5 1.9-27.4-127.8-164-222.7-320-222.7C206.8 147.1 64 265.9 64 416.8c0 87.1 47.5 158.6 126.9 214.1l-31.7 95.4L270 670.7c39.7 7.9 71.5 15.9 111.1 15.9 9.9 0 19.8-0.5 29.6-1.3-6.2-21.2-9.8-43.4-9.8-66.4 0.1-138.6 119-251 269.7-251z m-170.5-86c23.9 0 39.7 15.7 39.7 39.6 0 23.8-15.8 39.7-39.7 39.7-23.8 0-47.6-15.9-47.6-39.7-0.1-23.9 23.8-39.6 47.6-39.6z m-222 79.3c-23.8 0-47.8-15.9-47.8-39.7 0-23.9 24-39.6 47.8-39.6 23.8 0 39.6 15.7 39.6 39.6 0 23.8-15.8 39.7-39.6 39.7z" fill="#2c2c2c" p-id="6872"></path><path d="M960 615.1C960 488.3 833.1 385 690.6 385c-150.9 0-269.7 103.3-269.7 230.1 0 127 118.8 230.1 269.7 230.1 31.6 0 63.5-8 95.2-15.9l87 47.6-23.8-79.2c63.6-47.8 111-111.1 111-182.6z m-356.8-39.7c-15.8 0-31.7-15.7-31.7-31.7 0-15.8 15.9-31.7 31.7-31.7 24 0 39.7 15.9 39.7 31.7 0 16-15.7 31.7-39.7 31.7z m174.4 0c-15.7 0-31.5-15.7-31.5-31.7 0-15.8 15.8-31.7 31.5-31.7 23.8 0 39.7 15.9 39.7 31.7 0 16-15.9 31.7-39.7 31.7z" fill="#2c2c2c" p-id="6873"></path></svg>