<?xml version="1.0" standalone="no"?><!DOCTYPE svg PUBLIC "-//W3C//DTD SVG 1.1//EN" "http://www.w3.org/Graphics/SVG/1.1/DTD/svg11.dtd"><svg t="1537343653081" class="icon" style="" viewBox="0 0 1024 1024" version="1.1" xmlns="http://www.w3.org/2000/svg" p-id="7540" xmlns:xlink="http://www.w3.org/1999/xlink" width="64" height="64"><defs><style type="text/css"></style></defs><path d="M369.7984 20.18304l336.78464 413.5616 8.832-391.46112C653.06368 15.14496 584.28032 0 511.93856 0 462.58816 0 414.91968 7.15264 369.7984 20.18304z" p-id="7541" fill="#2c2c2c"></path><path d="M63.712 264.72832l530.58816 54.24384L323.72224 35.93984c-63.27936 24.90496-122.64704 62.84288-173.76512 113.98784C115.03104 184.82688 86.41664 223.57504 63.712 264.72832z" p-id="7542" fill="#2c2c2c"></path><path d="M20.18304 654.048l413.5616-336.84224-391.46112-8.77568C15.11808 370.78272 0 439.56352 0 511.90784 0 561.25824 7.1232 608.89728 20.18304 654.048z" p-id="7543" fill="#2c2c2c"></path><path d="M264.70144 960.10368l54.24384-530.58816L35.96928 700.12416c24.87552 63.24992 62.78656 122.6176 113.98784 173.76512C184.79616 908.78464 223.57504 937.42592 264.70144 960.10368z" p-id="7544" fill="#2c2c2c"></path><path d="M654.01856 1003.63264 317.23648 590.07232l-8.83456 391.49184c62.3808 27.10784 131.13472 42.28352 203.53664 42.28352C561.2288 1023.8464 608.89728 1016.69376 654.01856 1003.63264z" p-id="7545" fill="#2c2c2c"></path><path d="M960.07424 759.08864l-530.55872-54.21696 270.60864 283.00416c63.24992-24.90496 122.6176-62.81728 173.76512-113.98784C908.78592 839.01952 937.42592 800.2688 960.07424 759.08864z" p-id="7546" fill="#2c2c2c"></path><path d="M1003.6032 369.7984 590.07232 706.60992l391.46112 8.80512c27.13856-62.3808 42.28352-131.13472 42.28352-203.5072C1023.81696 462.58816 1016.66304 414.91968 1003.6032 369.7984z" p-id="7547" fill="#2c2c2c"></path><path d="M759.11552 63.74144l-54.24256 530.55872 283.00416-270.5792c-24.90496-63.27936-62.78784-122.62016-113.98784-173.79456C839.01952 115.06176 800.2688 86.38976 759.11552 63.74144z" p-id="7548" fill="#2c2c2c"></path></svg>